<svg width="303" height="264" viewBox="0 0 303 264" xmlns="http://www.w3.org/2000/svg" xmlns:xlink="http://www.w3.org/1999/xlink">
    <path id="Path-copy" fill="#646464" stroke="none" d="M 164.264786 27.65506 L 151.956589 39.990402 L 139.60939 27.643951 C 108.129959 -3.836243 57.09042 -3.836243 25.610384 27.643951 C -5.869798 59.123993 -5.869798 110.163376 25.610384 141.644012 L 144.01857 260.051422 C 148.411255 264.444122 155.533432 264.444122 159.926102 260.051422 L 278.425018 141.621506 C 309.835144 110.037399 309.88916 59.14093 278.404022 27.65506 C 246.866394 -3.882416 195.802414 -3.882416 164.264786 27.65506 Z M 262.473999 125.758957 L 151.971588 236.192368 L 41.517323 125.736465 C 18.822203 103.041199 18.822203 66.24585 41.517323 43.550888 C 64.212288 20.855759 101.008087 20.855759 123.703354 43.550888 L 144.060562 63.908676 C 148.528229 68.3759 155.797363 68.288773 160.155563 63.715988 L 180.172333 43.561981 C 202.924591 20.809738 239.744232 20.809738 262.49649 43.561981 C 285.197754 66.262497 285.158783 102.949707 262.473999 125.758957 Z"/>
</svg>
